<?xml version="1.0" encoding="utf-8"?>
<!-- Generator: Adobe Illustrator 23.0.5, SVG Export Plug-In . SVG Version: 6.00 Build 0)  -->
<svg version="1.1" id="Capa_1" xmlns="http://www.w3.org/2000/svg" xmlns:xlink="http://www.w3.org/1999/xlink" x="0px" y="0px"
	 viewBox="0 0 1000 1000" style="enable-background:new 0 0 1000 1000;" xml:space="preserve">
<style type="text/css">
	.st0{fill:#2A2A3D;}
	.st1{fill:#F4F187;}
	.st2{fill:#98CA69;}
	.st3{fill:#EDEFF1;}
</style>
<g>
	<g transform="translate(0 -252.36)">
		<path color-rendering="auto" image-rendering="auto" shape-rendering="auto" class="st0" d="M499.64,352.26
			c-163.75-0.01-296.51,132.73-296.52,296.48c-0.01,163.77,296.52,503.52,296.52,503.52s296.49-339.77,296.48-503.52
			C796.11,485,663.38,352.27,499.64,352.26L499.64,352.26z M499.64,371.24c153.26,0.01,277.5,124.25,277.51,277.51
			c-0.01,153.26-277.51,472.76-277.51,472.76S222.1,802.02,222.09,648.75C222.1,495.48,346.36,371.23,499.64,371.24L499.64,371.24z
			 M499.64,512.25c-75.39-0.02-136.52,61.09-136.54,136.48c0,0.01,0,0.01,0,0.02c-0.02,75.39,61.09,136.52,136.48,136.54
			c0.02,0,0.04,0,0.06,0c75.39-0.01,136.51-61.13,136.5-136.52c0-0.01,0-0.01,0-0.02C636.14,573.36,575.03,512.25,499.64,512.25z
			 M499.64,526.19c67.68,0.02,122.53,54.87,122.55,122.55c0.01,67.69-54.86,122.57-122.55,122.59
			c-67.7,0.01-122.58-54.87-122.59-122.57c0-0.01,0-0.01,0-0.02C377.07,581.05,431.95,526.18,499.64,526.19L499.64,526.19z"/>
	</g>
	<polygon class="st0" points="388.25,129.58 332.32,162.37 266.75,222.16 227.21,300.26 214.67,352.33 214.67,427.55 233,494.22 
		301.46,628.12 431.64,807.48 497.57,886.55 699.71,614.62 762.39,488.3 784.57,411.16 779.75,334.01 761.42,274.04 714.98,208.33 
		672.23,170.08 573.55,116.08 492.55,108.05 	"/>
</g>
<circle id="bg_10_" class="st1" cx="499.62" cy="409.33" r="197.5"/>
<g>
	<g>
		<path class="st2" d="M399.43,291.71h200.38v240.11H399.43V291.71z"/>
	</g>
	<path class="st3" d="M407.6,299.03v225.47h184.04V299.03H407.6z M586.2,308.37c-2.31-0.74-4.15-2.38-4.97-4.45h4.97V308.37z
		 M518.68,303.91v11.71h-38.12v-11.71H518.68z M475.12,303.91v16.59h49.01v-16.59h18.51v34.16h-13.43h-59.17H456.6v-34.16H475.12z
		 M521.29,342.96c-4.19,7.12-12.47,11.71-21.67,11.71s-17.49-4.59-21.67-11.71H521.29z M471.95,342.96
		c4.6,9.99,15.48,16.59,27.67,16.59c12.19,0,23.07-6.6,27.67-16.59h20.79v-39.04h27.5c1.09,4.77,5.29,8.54,10.62,9.52v95.9h-62.23
		c-1.36-10.97-11.76-19.52-24.35-19.52s-22.99,8.56-24.35,19.52h-62.23v-95.9c5.33-0.97,9.53-4.74,10.62-9.52h27.5v39.04H471.95z
		 M480.76,409.33c1.33-8.27,9.28-14.64,18.86-14.64c9.58,0,17.53,6.37,18.86,14.64H480.76z M518.48,414.21
		c-1.33,8.27-9.28,14.64-18.86,14.64s-17.53-6.37-18.86-14.64H518.48z M418.01,303.91c-0.82,2.07-2.65,3.72-4.97,4.45v-4.45H418.01z
		 M413.04,515.17c2.31,0.74,4.15,2.38,4.97,4.45h-4.97V515.17z M480.56,519.63v-11.71h38.12v11.71H480.56z M524.12,519.63v-16.59
		h-49.01v16.59H456.6v-34.16h13.43h59.17h13.43v34.16H524.12z M477.95,480.58c4.19-7.12,12.47-11.71,21.67-11.71
		s17.49,4.59,21.67,11.71H477.95z M527.29,480.58c-4.6-9.99-15.48-16.59-27.67-16.59s-23.07,6.6-27.67,16.59h-20.79v39.04h-27.5
		c-1.09-4.77-5.29-8.54-10.62-9.52v-95.9h62.23c1.36,10.97,11.76,19.52,24.35,19.52c12.59,0,22.99-8.56,24.35-19.52h62.23v95.9
		c-5.33,0.97-9.53,4.74-10.62,9.52h-27.5v-39.04H527.29z M581.23,519.63c0.82-2.07,2.65-3.72,4.97-4.45v4.45H581.23z"/>
</g>
</svg>
